# xmcd CD database file
#
# Track frame offsets:
#	150
#	4338
#	24230
#	45181
#	49872
#	73755
#	98687
#	122649
#	127581
#	149458
#	152861
#	173861
#	193702
#	199278
#	215813
#	238813
#	265711
#	290139
#
# Disc length: 4210 seconds
#
# Revision: 0
# Processed by: cddbd v1.5.2PL0 Copyright (c) Steve Scherf et al.
# Submitted via: CDex 1.50beta10
#
DISCID=09107012
DTITLE=Frankfurt City Blues Band - One, Two, Go Go
DYEAR=2002
DGENRE=Blues
TTITLE0=Another Dimension
TTITLE1=Still In My Flesh
TTITLE2=Voodoo Chile
TTITLE3=Much About Nothing
TTITLE4=Lucy In The Sky With Diamonds
TTITLE5=Let's Pretend We're Married
TTITLE6=Ruby Tuesday
TTITLE7=Mojo Thing
TTITLE8=Hey Bulldog
TTITLE9=Space Mission
TTITLE10=Dock Of The Bay
TTITLE11=There's A Boat That's Leaving Soon For New York
TTITLE12=Johnny's Sad
TTITLE13=Dream A Little Dream
TTITLE14=Don't Think Twice
TTITLE15=My Way
TTITLE16=Dead End Street
TTITLE17=Signals Grow On Radio
EXTD=YEAR: 2002
EXTT0=
EXTT1=
EXTT2=
EXTT3=
EXTT4=
EXTT5=
EXTT6=
EXTT7=
EXTT8=
EXTT9=
EXTT10=
EXTT11=
EXTT12=
EXTT13=
EXTT14=
EXTT15=
EXTT16=
EXTT17=
PLAYORDER=
